<svg xmlns="http://www.w3.org/2000/svg" viewBox="0 0 800 600" width="100%" height="100%">
  <rect width="800" height="600" fill="#ffffff" rx="20"/>
  
  <g id="solid">
    <rect x="100" y="250" width="150" height="150" fill="#e3fafc" stroke="#15aabf" stroke-width="4"/>
    <circle cx="120" cy="270" r="15" fill="#0b7285"/>
    <circle cx="155" cy="270" r="15" fill="#0b7285"/>
    <circle cx="190" cy="270" r="15" fill="#0b7285"/>
    <circle cx="225" cy="270" r="15" fill="#0b7285"/>
    <circle cx="120" cy="305" r="15" fill="#0b7285"/>
    <circle cx="155" cy="305" r="15" fill="#0b7285"/>
    <circle cx="190" cy="305" r="15" fill="#0b7285"/>
    <circle cx="225" cy="305" r="15" fill="#0b7285"/>
    <circle cx="120" cy="340" r="15" fill="#0b7285"/>
    <circle cx="155" cy="340" r="15" fill="#0b7285"/>
    <circle cx="190" cy="340" r="15" fill="#0b7285"/>
    <circle cx="225" cy="340" r="15" fill="#0b7285"/>
    <text x="135" y="440" font-size="24">Solid</text>
  </g>
  
  <g id="liquid">
    <rect x="325" y="250" width="150" height="150" fill="#e3fafc" stroke="#15aabf" stroke-width="4"/>
    <circle cx="340" cy="380" r="15" fill="#0b7285"/>
    <circle cx="380" cy="370" r="15" fill="#0b7285"/>
    <circle cx="420" cy="385" r="15" fill="#0b7285"/>
    <circle cx="450" cy="360" r="15" fill="#0b7285"/>
    <circle cx="360" cy="340" r="15" fill="#0b7285"/>
    <circle cx="400" cy="350" r="15" fill="#0b7285"/>
    <text x="360" y="440" font-size="24">Liquid</text>
  </g>
  
  <g id="gas">
    <rect x="550" y="250" width="150" height="150" fill="#e3fafc" stroke="#15aabf" stroke-width="4"/>
    <circle cx="580" cy="280" r="15" fill="#0b7285"/>
    <circle cx="680" cy="300" r="15" fill="#0b7285"/>
    <circle cx="600" cy="370" r="15" fill="#0b7285"/>
    <circle cx="660" cy="380" r="15" fill="#0b7285"/>
    <text x="600" y="440" font-size="24">Gas</text>
  </g>
</svg>