<svg viewBox="0 0 800 500" xmlns="http://www.w3.org/2000/svg">
    <rect width="800" height="500" fill="#1e1b4b"/>
    <text x="300" y="50" fill="white" font-size="24" font-family="sans-serif">The Rock Cycle</text>
    
    <g id="igneous_rock">
        <polygon points="400,100 450,180 350,180" fill="#57534e"/>
        <text x="360" y="210" fill="white">Igneous</text>
    </g>
    
    <g id="sedimentary_rock">
        <rect x="150" y="300" width="100" height="60" fill="#d6d3d1"/>
        <line x1="150" y1="320" x2="250" y2="320" stroke="#78716c" stroke-width="2"/>
        <line x1="150" y1="340" x2="250" y2="340" stroke="#78716c" stroke-width="2"/>
        <text x="140" y="390" fill="white">Sedimentary</text>
    </g>
    
    <g id="metamorphic_rock">
        <ellipse cx="600" cy="330" rx="60" ry="40" fill="#a8a29e"/>
        <path d="M550,330 Q600,310 650,330" fill="none" stroke="#44403c" stroke-width="2"/>
        <path d="M560,340 Q600,320 640,340" fill="none" stroke="#44403c" stroke-width="2"/>
        <text x="540" y="390" fill="white">Metamorphic</text>
    </g>
    
    <path id="weathering" d="M360,180 Q250,200 200,280" fill="none" stroke="#60a5fa" stroke-width="3" stroke-dasharray="5 5" marker-end="url(#arrow)"/>
    <path id="heat_pressure" d="M250,330 Q400,380 540,330" fill="none" stroke="#ef4444" stroke-width="3" marker-end="url(#arrow)"/>
    <path id="melting" d="M600,290 Q500,150 440,150" fill="none" stroke="#f97316" stroke-width="3" marker-end="url(#arrow)"/>
</svg>